<svg width="120" height="120" viewBox="0 0 120 120" xmlns="http://www.w3.org/2000/svg"><title>heart-pattern</title><g fill-rule="nonzero" fill="#FCEFF0"><path d="M80.67 59.862L61.012 76l-19.68-16.119c-4.443-3.638-4.443-9.496 0-13.134 4.441-3.638 11.594-3.638 16.036 0l3.622 2.967 3.644-2.985c4.442-3.639 11.594-3.639 16.036 0 4.442 3.638 4.438 9.492 0 13.133zM139.67 119.862L120.012 136l-19.68-16.119c-4.443-3.638-4.443-9.496 0-13.134 4.441-3.638 11.594-3.638 16.036 0l3.622 2.967 3.644-2.985c4.442-3.639 11.594-3.639 16.036 0 4.442 3.638 4.438 9.492 0 13.133zM139.67-.138L120.012 16 100.332-.119c-4.443-3.638-4.443-9.496 0-13.134 4.441-3.638 11.594-3.638 16.036 0l3.622 2.967 3.644-2.985c4.442-3.639 11.594-3.639 16.036 0 4.442 3.638 4.438 9.492 0 13.133zM19.67-.138L.012 16-19.668-.119c-4.443-3.638-4.443-9.496 0-13.134 4.441-3.638 11.594-3.638 16.036 0l3.622 2.967 3.644-2.985c4.442-3.639 11.594-3.639 16.036 0 4.442 3.638 4.438 9.492 0 13.133zM19.67 119.862L.012 136l-19.68-16.119c-4.443-3.638-4.443-9.496 0-13.134 4.441-3.638 11.594-3.638 16.036 0l3.622 2.967 3.644-2.985c4.442-3.639 11.594-3.639 16.036 0 4.442 3.638 4.438 9.492 0 13.133z"/></g></svg>