<?xml version="1.0" encoding="UTF-8"?>
<svg width="239px" height="240px" viewBox="0 0 239 240" version="1.1" xmlns="http://www.w3.org/2000/svg" xmlns:xlink="http://www.w3.org/1999/xlink">
    <!-- Generator: Sketch 50.2 (55047) - http://www.bohemiancoding.com/sketch -->
    <title>Artboard Copy</title>
    <desc>Created with Sketch.</desc>
    <defs></defs>
    <g id="Artboard-Copy" stroke="none" stroke-width="1" fill="none" fill-rule="evenodd">
        <path d="M137.380454,123.241482 L116.013179,140.782691 L94.6219912,123.262134 C89.7926696,119.307808 89.7926696,112.940451 94.6219912,108.986125 C99.4491388,105.031799 107.224097,105.031799 112.052331,108.986125 L115.989266,112.211108 L119.950114,108.96656 C124.778349,105.011147 132.55222,105.011147 137.380454,108.96656 C142.208689,112.920886 142.204341,119.283895 137.380454,123.241482 Z" id="Shape" fill="#EBF9FF" fill-rule="nonzero"></path>
        <path d="M21.3804543,0.24148232 L0.0131791843,17.7826913 L-21.3780088,0.262134382 C-26.2073304,-3.69219194 -26.2073304,-10.0595486 -21.3780088,-14.0138749 C-16.5508612,-17.9682013 -8.77590345,-17.9682013 -3.94766884,-14.0138749 L-0.0107337291,-10.7888925 L3.9501143,-14.03344 C8.77834891,-17.9888533 16.5522197,-17.9888533 21.3804543,-14.03344 C26.2086889,-10.0791137 26.2043411,-3.71610485 21.3804543,0.24148232 Z" id="Shape-Copy-5" fill="#EBF9FF" fill-rule="nonzero"></path>
        <path d="M260.380454,0.24148232 L239.013179,17.7826913 L217.621991,0.262134382 C212.79267,-3.69219194 212.79267,-10.0595486 217.621991,-14.0138749 C222.449139,-17.9682013 230.224097,-17.9682013 235.052331,-14.0138749 L238.989266,-10.7888925 L242.950114,-14.03344 C247.778349,-17.9888533 255.55222,-17.9888533 260.380454,-14.03344 C265.208689,-10.0791137 265.204341,-3.71610485 260.380454,0.24148232 Z" id="Shape-Copy-6" fill="#EBF9FF" fill-rule="nonzero"></path>
        <path d="M260.380454,239.240148 L239.013179,256.779999 L217.621991,239.260798 C212.79267,235.306778 212.79267,228.939914 217.621991,224.985894 C222.449139,221.031874 230.224097,221.031874 235.052331,224.985894 L238.989266,228.210627 L242.950114,224.96633 C247.778349,221.011223 255.55222,221.011223 260.380454,224.96633 C265.208689,228.920351 265.204341,235.282867 260.380454,239.240148 Z" id="Shape-Copy-7" fill="#EBF9FF" fill-rule="nonzero"></path>
        <path d="M21.3804543,239.240148 L0.0131791843,256.779999 L-21.3780088,239.260798 C-26.2073304,235.306778 -26.2073304,228.939914 -21.3780088,224.985894 C-16.5508612,221.031874 -8.77590345,221.031874 -3.94766884,224.985894 L-0.0107337291,228.210627 L3.9501143,224.96633 C8.77834891,221.011223 16.5522197,221.011223 21.3804543,224.96633 C26.2086889,228.920351 26.2043411,235.282867 21.3804543,239.240148 Z" id="Shape-Copy-8" fill="#EBF9FF" fill-rule="nonzero"></path>
        <path d="M141.380454,234.240148 L120.013179,251.779999 L98.6219912,234.260798 C93.7926696,230.306778 93.7926696,223.939914 98.6219912,219.985894 C103.449139,216.031874 111.224097,216.031874 116.052331,219.985894 L119.989266,223.210627 L123.950114,219.96633 C128.778349,216.011223 136.55222,216.011223 141.380454,219.96633 C146.208689,223.920351 146.204341,230.282867 141.380454,234.240148 Z" id="Shape-Copy-9" fill="#F0F5FC" fill-rule="nonzero"></path>
        <path d="M141.380454,-4.75985233 L120.013179,12.7799988 L98.6219912,-4.73920186 C93.7926696,-8.69322208 93.7926696,-15.0600859 98.6219912,-19.0141061 C103.449139,-22.9681263 111.224097,-22.9681263 116.052331,-19.0141061 L119.989266,-15.7893733 L123.950114,-19.0336697 C128.778349,-22.9887768 136.55222,-22.9887768 141.380454,-19.0336697 C146.208689,-15.0796495 146.204341,-8.71713314 141.380454,-4.75985233 Z" id="Shape-Copy-10" fill="#F0F5FC" fill-rule="nonzero"></path>
        <path d="M198.380454,65.2414823 L177.013179,82.7826913 L155.621991,65.2621344 C150.79267,61.3078081 150.79267,54.9404514 155.621991,50.9861251 C160.449139,47.0317987 168.224097,47.0317987 173.052331,50.9861251 L176.989266,54.2111075 L180.950114,50.96656 C185.778349,47.0111467 193.55222,47.0111467 198.380454,50.96656 C203.208689,54.9208863 203.204341,61.2838951 198.380454,65.2414823 Z" id="Shape-Copy" fill="#FFF6F5" fill-rule="nonzero"></path>
        <path d="M198.380454,183.241482 L177.013179,200.782691 L155.621991,183.262134 C150.79267,179.307808 150.79267,172.940451 155.621991,168.986125 C160.449139,165.031799 168.224097,165.031799 173.052331,168.986125 L176.989266,172.211108 L180.950114,168.96656 C185.778349,165.011147 193.55222,165.011147 198.380454,168.96656 C203.208689,172.920886 203.204341,179.283895 198.380454,183.241482 Z" id="Shape-Copy-12" fill="#EEF9E8" fill-rule="nonzero"></path>
        <path d="M80.3804543,70.2414823 L59.0131792,87.7826913 L37.6219912,70.2621344 C32.7926696,66.3078081 32.7926696,59.9404514 37.6219912,55.9861251 C42.4491388,52.0317987 50.2240965,52.0317987 55.0523312,55.9861251 L58.9892663,59.2111075 L62.9501143,55.96656 C67.7783489,52.0111467 75.5522197,52.0111467 80.3804543,55.96656 C85.2086889,59.9208863 85.2043411,66.2838951 80.3804543,70.2414823 Z" id="Shape-Copy-2" fill="#F0F5FC" fill-rule="nonzero"></path>
        <path d="M80.3804543,191.241482 L59.0131792,208.782691 L37.6219912,191.262134 C32.7926696,187.307808 32.7926696,180.940451 37.6219912,176.986125 C42.4491388,173.031799 50.2240965,173.031799 55.0523312,176.986125 L58.9892663,180.211108 L62.9501143,176.96656 C67.7783489,173.011147 75.5522197,173.011147 80.3804543,176.96656 C85.2086889,180.920886 85.2043411,187.283895 80.3804543,191.241482 Z" id="Shape-Copy-11" fill="#FEF6E5" fill-rule="nonzero"></path>
        <path d="M21.3804543,130.241482 L0.0131791843,147.782691 L-21.3780088,130.262134 C-26.2073304,126.307808 -26.2073304,119.940451 -21.3780088,115.986125 C-16.5508612,112.031799 -8.77590345,112.031799 -3.94766884,115.986125 L-0.0107337291,119.211108 L3.9501143,115.96656 C8.77834891,112.011147 16.5522197,112.011147 21.3804543,115.96656 C26.2086889,119.920886 26.2043411,126.283895 21.3804543,130.241482 Z" id="Shape-Copy-3" fill="#FCEFF0" fill-rule="nonzero"></path>
        <path d="M260.380454,130.241482 L239.013179,147.782691 L217.621991,130.262134 C212.79267,126.307808 212.79267,119.940451 217.621991,115.986125 C222.449139,112.031799 230.224097,112.031799 235.052331,115.986125 L238.989266,119.211108 L242.950114,115.96656 C247.778349,112.011147 255.55222,112.011147 260.380454,115.96656 C265.208689,119.920886 265.204341,126.283895 260.380454,130.241482 Z" id="Shape-Copy-4" fill="#FCEFF0" fill-rule="nonzero"></path>
    </g>
</svg>