<?xml version="1.0" encoding="UTF-8"?>
<svg width="288px" height="68px" viewBox="0 0 288 68" version="1.1" xmlns="http://www.w3.org/2000/svg" xmlns:xlink="http://www.w3.org/1999/xlink">
    <!-- Generator: Sketch 50.2 (55047) - http://www.bohemiancoding.com/sketch -->
    <title>logo</title>
    <desc>Created with Sketch.</desc>
    <defs></defs>
    <g id="Page-1" stroke="none" stroke-width="1" fill="none" fill-rule="evenodd">
        <g id="MVP-Template" transform="translate(-574.000000, -77.000000)">
            <g id="logo" transform="translate(573.000000, 77.000000)">
                <g id="Group" transform="translate(146.500000, 35.500000) rotate(-360.000000) translate(-146.500000, -35.500000) " fill="#4C4949">
                    <path d="M14.6995746,25.7668441 C15.7343104,25.7668441 16.333368,26.3661114 16.333368,27.4012095 L16.333368,41.0209211 C16.333368,42.0560191 16.9324256,42.6552864 17.9671615,42.6552864 L23.1953006,42.6552864 C24.2844963,42.6552864 24.8290941,42.0560191 24.8290941,41.0209211 L24.8290941,27.4012095 C24.8290941,26.3661114 25.4281517,25.7668441 26.4628876,25.7668441 L32.5623832,25.7668441 C33.6515789,25.7668441 34.1961767,26.3116326 34.1961767,27.4012095 L34.1961767,62.2676711 C34.1961767,63.3027691 33.6515789,63.9020364 32.5623832,63.9020364 L26.4628876,63.9020364 C25.4281517,63.9020364 24.8290941,63.3027691 24.8290941,62.2676711 L24.8290941,53.6600134 C24.8290941,52.5704364 24.2844963,52.025648 23.1953006,52.025648 L17.9671615,52.025648 C16.9324256,52.025648 16.333368,52.5704364 16.333368,53.6600134 L16.333368,62.2676711 C16.333368,63.3027691 15.7887702,63.9020364 14.6995746,63.9020364 L8.6000789,63.9020364 C7.56534303,63.9020364 6.96628542,63.3027691 6.96628542,62.2676711 L6.96628542,27.4012095 C6.96628542,26.3116326 7.51088325,25.7668441 8.6000789,25.7668441 L14.6995746,25.7668441 Z" id="H" transform="translate(20.581231, 44.834440) rotate(-23.000000) translate(-20.581231, -44.834440) "></path>
                    <path d="M178.341528,1.50659146 C179.430723,1.50659146 179.975321,2.05137992 179.975321,3.14095684 L179.975321,9.24258761 C179.975321,10.2776857 179.430723,10.876953 178.341528,10.876953 L164.617663,10.876953 C163.582927,10.876953 162.983869,11.4217415 162.983869,12.5113184 L162.983869,14.2546415 C162.983869,15.2897395 163.582927,15.8890068 164.617663,15.8890068 L173.603527,15.8890068 C174.692722,15.8890068 175.23732,16.4337953 175.23732,17.5233722 L175.23732,23.625003 C175.23732,24.6601011 174.692722,25.2593684 173.603527,25.2593684 L164.617663,25.2593684 C163.582927,25.2593684 162.983869,25.8041568 162.983869,26.8937338 L162.983869,38.0074184 C162.983869,39.0425165 162.439271,39.6417838 161.350076,39.6417838 L154.923821,39.6417838 C153.889085,39.6417838 153.290028,39.0425165 153.290028,38.0074184 L153.290028,3.14095684 C153.290028,2.05137992 153.889085,1.50659146 154.923821,1.50659146 L178.341528,1.50659146 Z" id="F" transform="translate(166.632675, 20.574188) rotate(4.000000) translate(-166.632675, -20.574188) "></path>
                    <path d="M192.356416,5.08501726 C193.445612,5.08501726 193.99021,5.62980572 193.99021,6.71938265 L193.99021,41.5858442 C193.99021,42.6209423 193.445612,43.2202096 192.356416,43.2202096 L186.36584,43.2202096 C185.331104,43.2202096 184.732047,42.6209423 184.732047,41.5858442 L184.732047,6.71938265 C184.732047,5.62980572 185.331104,5.08501726 186.36584,5.08501726 L192.356416,5.08501726 Z" id="I" transform="translate(189.361128, 24.152613) rotate(9.000000) translate(-189.361128, -24.152613) "></path>
                    <path d="M207.292678,10.1349377 C208.272954,10.1349377 208.872011,10.6252473 209.089851,11.5513877 L213.882311,32.4712646 C213.991231,32.9615742 214.426909,32.9615742 214.535829,32.4712646 L219.32829,11.5513877 C219.546129,10.6252473 220.145186,10.1349377 221.125463,10.1349377 L227.606177,10.1349377 C228.749832,10.1349377 229.29443,10.7886838 229.022131,11.9327396 L221.071003,46.85368 C220.853164,47.7798204 220.254106,48.27013 219.27383,48.27013 L209.14431,48.27013 C208.164034,48.27013 207.564977,47.7798204 207.347138,46.85368 L199.396009,11.9327396 C199.12371,10.7886838 199.668308,10.1349377 200.811964,10.1349377 L207.292678,10.1349377 Z" id="V" transform="translate(214.209070, 29.202534) rotate(15.000000) translate(-214.209070, -29.202534) "></path>
                    <path d="M255.413104,18.2216232 C256.5023,18.2216232 257.046898,18.7664116 257.046898,19.8559885 L257.046898,25.9576193 C257.046898,26.9927174 256.5023,27.5919847 255.413104,27.5919847 L242.233837,27.5919847 C241.199101,27.5919847 240.600044,28.1367732 240.600044,29.2263501 L240.600044,30.9696732 C240.600044,32.0047712 241.199101,32.6040385 242.233837,32.6040385 L250.675103,32.6040385 C251.764299,32.6040385 252.308897,33.148827 252.308897,34.2384039 L252.308897,40.3400347 C252.308897,41.3751328 251.764299,41.9744001 250.675103,41.9744001 L242.233837,41.9744001 C241.199101,41.9744001 240.600044,42.5191885 240.600044,43.6087655 L240.600044,45.3520885 C240.600044,46.3871866 241.199101,46.9864539 242.233837,46.9864539 L255.413104,46.9864539 C256.5023,46.9864539 257.046898,47.5312424 257.046898,48.6208193 L257.046898,54.7224501 C257.046898,55.812027 256.5023,56.3568155 255.413104,56.3568155 L232.539996,56.3568155 C231.50526,56.3568155 230.906202,55.7575482 230.906202,54.7224501 L230.906202,19.8559885 C230.906202,18.7664116 231.50526,18.2216232 232.539996,18.2216232 L255.413104,18.2216232 Z" id="E" transform="translate(243.976550, 37.289219) rotate(20.000000) translate(-243.976550, -37.289219) "></path>
                    <path d="M284.349959,39.8072071 C285.330235,39.5892917 285.820373,38.9900244 285.765913,38.0094051 C285.439155,34.0869282 282.825085,26.7867628 271.60637,26.7867628 C259.407378,26.7867628 258.427102,36.4295186 258.481562,38.063884 C258.481562,50.5940186 274.873957,49.5589205 275.908693,54.1896224 C276.235451,55.6605513 274.274899,57.2404378 271.60637,57.2404378 C269.04676,57.2404378 267.031748,55.7150301 266.813909,53.1000455 C266.704989,51.9559897 266.105932,51.4656801 265.016736,51.6835955 L258.862781,53.0455667 C257.882505,53.2634821 257.392367,53.8627494 257.446826,54.8433686 C257.719125,59.0927186 260.169815,66.6107994 271.60637,66.6107994 C284.513338,66.6107994 286.364971,56.9680436 286.364971,55.3336782 C286.364971,42.8035436 269.15568,42.9125013 268.393243,38.6631513 C268.175403,37.4101378 269.482438,36.1571244 271.60637,36.1571244 C274.16598,36.1571244 275.963152,37.5735744 276.344371,39.8072071 C276.50775,40.896784 277.052348,41.3870936 278.141544,41.1691782 L284.349959,39.8072071 Z" id="S" transform="translate(271.903853, 46.698781) rotate(20.000000) translate(-271.903853, -46.698781) "></path>
                    <path d="M50.5596788,15.8558634 C51.6488744,15.8558634 52.1934723,16.4006518 52.1934723,17.4902288 L52.1934723,52.3566903 C52.1934723,53.3917884 51.6488744,53.9910557 50.5596788,53.9910557 L44.5691027,53.9910557 C43.5343668,53.9910557 42.9353092,53.3917884 42.9353092,52.3566903 L42.9353092,17.4902288 C42.9353092,16.4006518 43.5343668,15.8558634 44.5691027,15.8558634 L50.5596788,15.8558634 Z" id="I" transform="translate(47.564391, 34.923460) rotate(-20.000000) translate(-47.564391, -34.923460) "></path>
                    <path d="M58.6299069,35.1084134 C58.6299069,38.7040172 59.3923439,48.346773 72.2993123,48.346773 C85.2062808,48.346773 85.9687178,38.7040172 85.9687178,35.1084134 L85.9687178,27.7537692 C85.9687178,26.6641922 85.42412,26.1194038 84.3349243,26.1194038 L73.4429678,26.1194038 C72.4082319,26.1194038 71.8091743,26.6641922 71.8091743,27.7537692 L71.8091743,32.1120769 C71.8091743,33.1471749 72.4082319,33.7464422 73.4429678,33.7464422 L76.6016352,33.7464422 C76.6016352,36.4159057 76.3293363,38.9764115 72.2993123,38.9764115 C68.2692884,38.9764115 67.9969895,36.4159057 67.9969895,32.2210346 L67.9969895,24.3760807 C67.9969895,20.1812096 68.2692884,17.6207038 72.2993123,17.6207038 C75.40352,17.6207038 76.3293363,19.1461115 76.5471754,21.7610961 C76.656095,22.9051519 77.2551526,23.3954615 78.3443482,23.1775461 L84.4983036,21.8155749 C85.4785797,21.5976596 85.9687178,20.9983922 85.914258,20.017773 C85.6419591,15.768423 83.7358667,8.25034225 72.2993123,8.25034225 C59.3923439,8.25034225 58.6299069,17.893098 58.6299069,21.4887019 L58.6299069,35.1084134 Z" id="G" transform="translate(72.299312, 28.298558) rotate(-17.000000) translate(-72.299312, -28.298558) "></path>
                    <path d="M98.4731942,2.45289951 C99.5079301,2.45289951 100.106988,3.05216681 100.106988,4.08726489 L100.106988,17.7069764 C100.106988,18.7420745 100.706045,19.3413418 101.740781,19.3413418 L106.96892,19.3413418 C108.058116,19.3413418 108.602714,18.7420745 108.602714,17.7069764 L108.602714,4.08726489 C108.602714,3.05216681 109.201771,2.45289951 110.236507,2.45289951 L116.336003,2.45289951 C117.425199,2.45289951 117.969796,2.99768797 117.969796,4.08726489 L117.969796,38.9537264 C117.969796,39.9888245 117.425199,40.5880918 116.336003,40.5880918 L110.236507,40.5880918 C109.201771,40.5880918 108.602714,39.9888245 108.602714,38.9537264 L108.602714,30.3460687 C108.602714,29.2564918 108.058116,28.7117034 106.96892,28.7117034 L101.740781,28.7117034 C100.706045,28.7117034 100.106988,29.2564918 100.106988,30.3460687 L100.106988,38.9537264 C100.106988,39.9888245 99.5623898,40.5880918 98.4731942,40.5880918 L92.3736985,40.5880918 C91.3389627,40.5880918 90.7399051,39.9888245 90.7399051,38.9537264 L90.7399051,4.08726489 C90.7399051,2.99768797 91.2845029,2.45289951 92.3736985,2.45289951 L98.4731942,2.45289951 Z" id="H" transform="translate(104.354851, 21.520496) rotate(-12.000000) translate(-104.354851, -21.520496) "></path>
                </g>
                <path d="M146.335235,20.9312346 L136.506142,29 C133.226054,26.3135338 129.945843,23.6270675 126.665796,20.9405679 C124.444735,19.1215115 124.444735,16.1926553 126.665796,14.373609 C128.886734,12.5545626 132.462783,12.5545426 134.683762,14.373609 L136.494765,15.8567754 L138.317064,14.3642823 C140.538084,12.5452392 144.114092,12.5452392 146.335235,14.3642823 C148.556051,16.1833287 148.553792,19.1104249 146.335235,20.9312346 Z" id="Shape" fill="#DB273B" fill-rule="nonzero" transform="translate(136.500000, 21.000000) rotate(-3.000000) translate(-136.500000, -21.000000) "></path>
            </g>
        </g>
    </g>
</svg>